<svg width="66" height="65" viewBox="0 0 66 65" fill="none" xmlns="http://www.w3.org/2000/svg">
<g clip-path="url(#clip0_331_105)">
<path d="M5.61326 57.7956L0.0966797 0.607422L65.979 0.722346L60.1458 57.7956L33.2865 64.3927L5.61326 57.7956Z" fill="#1B73BA"/>
<path d="M33.2861 58.8696V6.05396L60.4169 6.13057L55.5788 53.3848L33.2861 58.8696Z" fill="#1C88C7"/>
<path d="M53.6793 12.8047H11.9434L13.074 19.7083H32.8791L13.3906 26.8043L14.5207 33.478H43.2343L42.194 42.7981L32.4721 44.4093L23.655 42.4917L22.9765 37.1984H14.8826L15.9675 48.2068L33.3312 52.3107L49.9718 47.8233L52.0971 26.3054H34.5065L53.6788 19.555L53.6793 12.8047Z" fill="white"/>
</g>
<defs>
<clipPath id="clip0_331_105">
<rect width="65.8824" height="64" fill="white" transform="translate(0.0966797 0.5)"/>
</clipPath>
</defs>
</svg>
