<svg width="69" height="65" viewBox="0 0 69 65" fill="none" xmlns="http://www.w3.org/2000/svg">
<g clip-path="url(#clip0_331_100)">
<path fill-rule="evenodd" clip-rule="evenodd" d="M34.1457 1.28809C15.4064 1.28809 0.208984 15.6151 0.208984 33.2896C0.208984 47.426 9.9329 59.421 23.4197 63.6545C25.1177 63.9474 25.7366 62.9591 25.7366 62.1104C25.7366 61.3502 25.707 59.3385 25.6893 56.6688C16.2488 58.6018 14.2569 52.3785 14.2569 52.3785C12.713 48.6813 10.4878 47.6971 10.4878 47.6971C7.40621 45.713 10.7211 45.7521 10.7211 45.7521C14.1276 45.9782 15.9195 49.0505 15.9195 49.0505C18.9469 53.9401 23.864 52.5278 25.7976 51.7086C26.1059 49.6419 26.9831 48.2314 27.9519 47.4318C20.4158 46.6225 12.4921 43.8781 12.4921 31.6158C12.4921 28.121 13.8152 25.2666 15.9862 23.0291C15.6359 22.2197 14.4714 18.9664 16.3199 14.5601C16.3199 14.5601 19.168 13.6997 25.652 17.8389C28.3586 17.1297 31.263 16.7761 34.1487 16.7624C37.0323 16.7735 39.9347 17.1299 42.6454 17.8389C49.1252 13.6997 51.9692 14.5601 51.9692 14.5601C53.8215 18.9664 52.6568 22.2197 52.3088 23.0291C54.484 25.2666 55.7966 28.121 55.7966 31.6158C55.7966 43.9095 47.8604 46.6145 40.3013 47.4062C41.5181 48.3943 42.6037 50.3471 42.6037 53.3332C42.6037 57.6098 42.5623 61.0614 42.5623 62.1104C42.5623 62.9669 43.1748 63.963 44.8959 63.6506C58.3722 59.4093 68.0878 47.424 68.0878 33.2896C68.0878 15.6151 52.8913 1.28809 34.1457 1.28809Z" fill="#1B1817"/>
</g>
<defs>
<clipPath id="clip0_331_100">
<rect width="67.8788" height="64" fill="white" transform="translate(0.208984 0.5)"/>
</clipPath>
</defs>
</svg>
