<svg width="65" height="65" viewBox="0 0 65 65" fill="none" xmlns="http://www.w3.org/2000/svg">
<g clip-path="url(#clip0_331_103)">
<path d="M4.62132 2.61866L8.77504 55.7581C8.8374 56.5561 9.37753 57.2365 10.1406 57.4785L31.9976 64.4082C32.3841 64.5307 32.7991 64.5307 33.1856 64.4082L55.0426 57.4785C55.8056 57.2365 56.3457 56.5561 56.4081 55.7581L60.5618 2.61866C60.6512 1.47619 59.7482 0.5 58.6024 0.5H6.58091C5.43505 0.5 4.53213 1.47619 4.62132 2.61866ZM49.9099 19.106H22.8392L23.6562 26.6397H49.3211L47.6422 48.1171L32.5916 52.8888L17.5411 48.1171L16.664 36.8964H24.5637V42.4004L32.8027 44.6116L40.9926 42.4004L41.6279 33.6287H16.4085L14.7342 12.2076H50.449L49.9099 19.106Z" fill="#FC490B"/>
</g>
<defs>
<clipPath id="clip0_331_103">
<rect width="64" height="64" fill="white" transform="translate(0.591797 0.5)"/>
</clipPath>
</defs>
</svg>
