<svg width="67" height="65" viewBox="0 0 67 65" fill="none" xmlns="http://www.w3.org/2000/svg">
<g clip-path="url(#clip0_331_109)">
<path d="M0.483398 0.5H66.3658V64.5H0.483398V0.5Z" fill="#F0DB4F"/>
<path d="M60.974 49.2361C60.4918 46.316 58.5316 43.8643 52.7262 41.5768C50.7097 40.6764 48.4614 40.0316 47.7913 38.5472C47.5533 37.6833 47.522 37.1966 47.6723 36.6734C48.1044 34.9761 50.1899 34.4468 51.8432 34.9335C52.9078 35.2802 53.9161 36.0773 54.5236 37.3487C57.3668 35.5602 57.3605 35.5723 59.3458 34.3434C58.6193 33.2484 58.231 32.7434 57.7551 32.275C56.0454 30.4195 53.7157 29.4643 49.9895 29.5373C49.3444 29.6164 48.6932 29.7015 48.0481 29.7807C46.1881 30.237 44.4158 31.186 43.3762 32.4575C40.2574 35.8948 41.1467 41.9114 44.9418 44.3875C48.6806 47.113 54.1729 47.7335 54.8743 50.2826C55.5569 53.4035 52.5134 54.4133 49.4885 54.0545C47.259 53.6043 46.0191 52.5031 44.6788 50.5016C42.2114 51.8887 42.2114 51.8887 39.6751 53.3062C40.2763 54.5837 40.9087 55.1617 41.9171 56.2689C46.6892 60.9716 58.6318 60.7404 60.7737 53.6225C60.8613 53.3791 61.4375 51.7487 60.974 49.2361ZM36.2995 29.9145H30.1371C30.1371 35.0856 30.1121 40.2202 30.1121 45.3913C30.1121 48.6825 30.2875 51.7 29.7363 52.6247C28.8345 54.4437 26.4986 54.2186 25.434 53.8657C24.3505 53.3486 23.7994 52.6125 23.1606 51.5723C22.9853 51.2742 22.8538 51.043 22.8099 51.0247C21.1378 52.0164 19.4719 53.014 17.7998 54.0057C18.6328 55.6666 19.8602 57.1084 21.4321 58.0452C23.7806 59.414 26.9369 59.8338 30.2374 59.0977C32.3854 58.4893 34.2391 57.2301 35.2098 55.3137C36.6126 52.8012 36.312 49.7593 36.2995 46.3951C36.3308 40.9076 36.2995 35.4202 36.2995 29.9145Z" fill="#323330"/>
</g>
<defs>
<clipPath id="clip0_331_109">
<rect width="65.8824" height="64" fill="white" transform="translate(0.483398 0.5)"/>
</clipPath>
</defs>
</svg>
