<svg width="107" height="65" viewBox="0 0 107 65" fill="none" xmlns="http://www.w3.org/2000/svg">
<g clip-path="url(#clip0_331_98)">
<path d="M25.5627 17.2H45.5932V18.7897H27.3989V30.7527H44.5084V32.3421H27.3989V45.4764H45.8019V47.0658H25.5627V17.2ZM47.3879 17.2H49.516L58.9469 30.3344L68.5865 17.1998L81.698 0.516602L60.1571 31.7148L71.2573 47.0658H69.0456L58.9469 33.0951L48.8064 47.0658H46.6366L57.8202 31.7146L47.3879 17.2ZM72.0501 18.7897V17.1998H94.8767V18.7895H84.3605V47.0656H82.5244V18.7897H72.0501ZM0.503906 17.1998H2.79905L34.4477 64.4834L21.3691 47.0656L2.4234 19.4588L2.34002 47.0661H0.503906L0.503906 17.1998ZM94.6916 44.9964C94.3164 44.9964 94.0351 44.7065 94.0351 44.3312C94.0351 43.9564 94.3164 43.666 94.6916 43.666C95.0712 43.666 95.3481 43.9562 95.3481 44.3312C95.3481 44.7063 95.0712 44.9964 94.6916 44.9964ZM96.4958 43.2465H97.4784C97.4917 43.7777 97.8801 44.1349 98.4518 44.1349C99.0905 44.1349 99.4522 43.7509 99.4522 43.0321V38.4782H100.453V43.0365C100.453 44.3312 99.7024 45.077 98.4607 45.077C97.295 45.077 96.4958 44.3536 96.4958 43.2463V43.2465ZM101.761 43.1885H102.753C102.837 43.8 103.436 44.1883 104.298 44.1883C105.102 44.1883 105.691 43.7731 105.691 43.2017C105.691 42.7107 105.316 42.416 104.463 42.2152L103.632 42.0143C102.466 41.7418 101.935 41.1793 101.935 40.2329C101.935 39.0856 102.873 38.3221 104.28 38.3221C105.588 38.3221 106.544 39.0854 106.602 40.1703H105.628C105.535 39.5766 105.017 39.2059 104.266 39.2059C103.476 39.2059 102.949 39.5855 102.949 40.1658C102.949 40.6255 103.288 40.8892 104.128 41.0855L104.838 41.2596C106.16 41.5678 106.705 42.1035 106.705 43.0723C106.705 44.3045 105.749 45.077 104.222 45.077C102.793 45.077 101.832 44.3401 101.761 43.1883V43.1885Z" fill="black"/>
</g>
<defs>
<clipPath id="clip0_331_98">
<rect width="106.201" height="64" fill="white" transform="translate(0.503906 0.5)"/>
</clipPath>
</defs>
</svg>
