<svg width="57" height="65" viewBox="0 0 57 65" fill="none" xmlns="http://www.w3.org/2000/svg">
<path d="M28.934 0.5C28.0812 0.5 27.2517 0.678175 26.5175 1.09831L3.28631 14.666C1.78295 15.5424 0.869141 17.1966 0.869141 18.9568V46.0431C0.869141 47.802 1.78295 49.4541 3.28631 50.3325L9.35323 53.8745C12.301 55.3436 13.3876 55.3207 14.7291 55.3207C19.0932 55.3207 21.5851 52.6425 21.5851 47.9885V21.2509C21.5851 20.8731 21.2615 20.6027 20.8948 20.6027H17.9847C17.6118 20.6027 17.2944 20.8731 17.2944 21.2509V47.9885C17.2944 50.051 15.1693 52.126 11.7211 50.3824L5.40733 46.6414C5.18385 46.5187 5.01247 46.3017 5.01247 46.0431V18.9561C5.01247 18.6996 5.18179 18.4382 5.40733 18.3079L28.5891 4.79079C28.6939 4.72889 28.813 4.69628 28.9343 4.69628C29.0556 4.69628 29.1747 4.72889 29.2795 4.79079L52.462 18.3086C52.6827 18.4431 52.8568 18.692 52.8568 18.9575V46.0438C52.8568 46.3024 52.7279 46.5672 52.5113 46.692L29.2795 60.2098C29.0807 60.3297 28.8064 60.3297 28.5891 60.2098L22.6209 56.6186C22.5301 56.5687 22.4284 56.5426 22.3251 56.5426C22.2218 56.5426 22.1201 56.5687 22.0293 56.6186C20.382 57.5628 20.0721 57.6724 18.527 58.2145C18.1465 58.349 17.5686 58.5577 18.7244 59.2129L26.5175 63.851C27.2523 64.2797 28.0863 64.5036 28.9346 64.4999C29.7828 64.5052 30.6171 64.2815 31.3511 63.8517L54.583 50.3332C56.0863 49.4492 56.9995 47.8027 56.9995 46.0438V18.9568C56.9995 17.1973 56.0863 15.5458 54.583 14.6674L31.3511 1.0997C30.6231 0.678871 29.7881 0.500693 28.9346 0.500693L28.934 0.5Z" fill="#83CD29"/>
<path d="M35.1498 19.8547C28.5344 19.8547 24.5947 22.7021 24.5947 27.4373C24.5947 32.5732 28.505 33.9847 34.8543 34.6198C42.45 35.372 43.0416 36.5 43.0416 38.0121C43.0416 40.6348 40.974 41.7531 36.0876 41.7531C29.9473 41.7531 28.5982 40.2029 28.1464 37.1143C28.093 36.7829 27.84 36.5152 27.5048 36.5152H24.496C24.1258 36.5152 23.8057 36.8383 23.8057 37.2141C23.8057 41.1679 25.9322 45.8435 36.0876 45.8435C43.4385 45.8435 47.6785 42.9254 47.6785 37.8124C47.6785 32.7444 44.2536 31.3835 37.1227 30.4302C29.9178 29.4658 29.2309 28.9937 29.2309 27.2875C29.2309 25.8788 29.8136 23.9944 35.1498 23.9944C39.9169 23.9944 41.6787 25.0343 42.4006 28.2852C42.4637 28.5902 42.7297 28.8336 43.0416 28.8336H46.051C46.2361 28.8336 46.4157 28.7185 46.5439 28.584C46.6701 28.4405 46.7592 28.2789 46.7414 28.0855C46.2752 22.4879 42.5843 19.8547 35.1498 19.8547Z" fill="#83CD29"/>
</svg>
