<svg width="64" height="65" viewBox="0 0 64 65" fill="none" xmlns="http://www.w3.org/2000/svg">
<path d="M32 37.448C34.7614 37.448 37 35.2094 37 32.448C37 29.6866 34.7614 27.448 32 27.448C29.2386 27.448 27 29.6866 27 32.448C27 35.2094 29.2386 37.448 32 37.448Z" fill="#00D8FF"/>
<path d="M32 43.912C25.9903 44.0574 19.9956 43.2473 14.24 41.512C11.5812 40.6692 9.10147 39.3415 6.926 37.596C6.09586 36.9998 5.40454 36.2309 4.89948 35.3423C4.39443 34.4537 4.08758 33.4664 4 32.448C4 29.142 7.632 25.902 13.716 23.782C19.6255 21.9035 25.7998 20.9931 32 21.086C38.1174 21.0006 44.2091 21.8945 50.044 23.734C52.6046 24.5504 55.0003 25.8139 57.12 27.466C57.9359 28.0345 58.6169 28.7755 59.1146 29.6364C59.6123 30.4974 59.9146 31.4573 60 32.448C60 35.884 55.94 39.366 49.4 41.53C43.7559 43.2088 37.8877 44.0121 32 43.912ZM32 23.478C26.0682 23.3988 20.1617 24.2643 14.502 26.042C8.902 27.996 6.392 30.668 6.392 32.442C6.392 34.298 9.09 37.216 15.014 39.242C20.5201 40.8938 26.2532 41.6626 32 41.52C37.6328 41.6208 43.2478 40.8586 48.65 39.26C54.8 37.222 57.6 34.3 57.6 32.448C57.4991 31.8125 57.2675 31.2048 56.9198 30.6633C56.5721 30.1218 56.1159 29.6583 55.58 29.302C53.6835 27.8363 51.5434 26.7165 49.258 25.994C43.6761 24.2416 37.85 23.3922 32 23.478Z" fill="#00D8FF"/>
<path d="M20.6402 57.3859C19.7072 57.4074 18.7852 57.181 17.9682 56.7299C15.1042 55.0779 14.1122 50.3139 15.3142 43.9839C16.6395 37.9261 18.9358 32.1225 22.1142 26.7979C25.0957 21.4562 28.9126 16.6258 33.4202 12.4899C35.4065 10.6794 37.6979 9.23503 40.1882 8.22395C41.0889 7.80182 42.0715 7.58301 43.0662 7.58301C44.0609 7.58301 45.0435 7.80182 45.9442 8.22395C48.9222 9.93995 49.9082 15.1959 48.5182 21.9419C47.152 27.6711 44.9153 33.1568 41.8862 38.2079C39.0097 43.4867 35.3129 48.275 30.9342 52.3939C28.8758 54.2755 26.4869 55.7598 23.8882 56.7719C22.8478 57.1581 21.7497 57.3657 20.6402 57.3859ZM24.1862 27.9859C21.1544 33.0846 18.9535 38.6334 17.6662 44.4239C16.5602 50.2539 17.6222 53.7599 19.1662 54.6519C20.7662 55.5779 24.6502 54.6999 29.3662 50.5799C33.5463 46.6339 37.0747 42.0504 39.8202 36.9999C42.7221 32.171 44.8676 26.9262 46.1822 21.4479C47.4902 15.0979 46.3602 11.2099 44.7562 10.2859C44.155 10.0556 43.5126 9.95249 42.8695 9.98312C42.2265 10.0138 41.5967 10.1775 41.0202 10.4639C38.8036 11.3786 36.7657 12.6772 35.0002 14.2999C30.6935 18.2615 27.0476 22.8858 24.2002 27.9979L24.1862 27.9859Z" fill="#00D8FF"/>
<path d="M43.3541 57.412C40.6441 57.412 37.2021 55.772 33.6181 52.69C29.0315 48.5165 25.15 43.6287 22.1241 38.216C18.9856 32.9647 16.7074 27.245 15.3761 21.274C14.7987 18.6469 14.6917 15.9383 15.0601 13.274C15.1453 12.2856 15.4462 11.3279 15.9418 10.4685C16.4373 9.60906 17.1153 8.86882 17.9281 8.29996C20.9021 6.57796 25.9481 8.34796 31.0981 12.92C35.3793 16.9643 39.0149 21.6414 41.8781 26.788C45.0147 31.9166 47.3167 37.511 48.6981 43.362C49.3003 46.0854 49.3932 48.8967 48.9721 51.654C48.8719 52.6708 48.553 53.6539 48.0372 54.5359C47.5215 55.4179 46.8211 56.178 45.9841 56.764C45.1804 57.2094 44.2727 57.433 43.3541 57.412ZM24.1941 37.012C27.0969 42.1848 30.8047 46.8627 35.1781 50.87C39.6761 54.74 43.2441 55.572 44.7781 54.67C46.3781 53.74 47.5581 49.944 46.3421 43.802C45.0098 38.2158 42.8019 32.8758 39.8001 27.98C37.0678 23.0542 33.5976 18.5757 29.5101 14.7C24.6621 10.396 20.7301 9.43396 19.1281 10.362C18.6288 10.7677 18.219 11.2726 17.9247 11.8447C17.6304 12.4169 17.4579 13.0438 17.4181 13.686C17.1001 16.0621 17.2037 18.4758 17.7241 20.816C19.0047 26.5262 21.1896 31.9952 24.1961 37.016L24.1941 37.012Z" fill="#00D8FF"/>
</svg>
