<svg width="67" height="65" viewBox="0 0 423 423" fill="none" xmlns="http://www.w3.org/2000/svg">
<g clip-path="url(#clip0_351_33)">
<path d="M0 211.5V0H423V423H0" fill="#007ACC"/>
<path d="M92.7432 212.24V229.478H147.733V385.988H186.755V229.478H241.745V212.558C241.745 203.04 241.745 195.32 241.322 195.109C241.322 194.792 207.799 194.686 167.085 194.686L93.0604 195.003V212.346L92.7432 212.24ZM339.881 194.58C350.667 197.118 358.916 201.983 366.318 209.702C370.231 213.932 376.047 221.335 376.47 223.238C376.47 223.873 358.176 236.246 347.072 243.119C346.649 243.437 344.957 241.639 343.265 238.889C337.766 231.064 332.161 227.68 323.384 227.045C310.694 226.199 302.234 232.862 302.234 243.965C302.234 247.349 302.868 249.253 304.137 252.002C306.993 257.819 312.28 261.308 328.671 268.499C358.916 281.507 372.029 290.072 379.96 302.339C388.949 316.087 390.958 337.66 384.93 353.84C378.162 371.5 361.665 383.45 338.083 387.362C330.681 388.631 313.761 388.42 305.829 387.045C288.909 383.873 272.73 375.413 262.789 364.52C258.876 360.29 251.368 348.975 251.791 348.235L255.81 345.697L271.672 336.497L283.622 329.517L286.371 333.218C289.861 338.717 297.687 346.12 302.234 348.658C315.981 355.743 334.382 354.791 343.476 346.543C347.389 342.947 349.081 339.14 349.081 333.853C349.081 328.988 348.341 326.768 345.909 323.066C342.525 318.413 335.757 314.606 316.722 306.146C294.831 296.84 285.525 290.918 276.854 281.824C271.884 276.325 267.336 267.759 265.221 260.674C263.635 254.54 263.106 239.524 264.587 233.496C269.134 212.346 285.102 197.541 307.944 193.311C315.347 191.831 332.796 192.465 340.092 194.369L339.881 194.58Z" fill="white"/>
</g>
<defs>
<clipPath id="clip0_351_33">
<rect width="423" height="423" fill="white"/>
</clipPath>
</defs>
</svg>
